# xmcd
#
# Track frame offsets:
#	150
#	12442
#	24402
#	38225
#	52697
#	66477
#	87192
#	100587
#	113427
#	127212
#	145617
#	161907
#	174910
#	191365
#	204865
#	224885
#
# Disc length: 3186 seconds
#
# Revision: 1
# Processed by: cddbd v1.4PL0 Copyright (c) Steve Scherf et al.
# Submitted via: audiograbber 1.80
#
DISCID=d60c7010
DTITLE=Tom Astor - Radwechsel
DYEAR=1900
DGENRE=Country
TTITLE0=Radwechsel
TTITLE1=14 Tage auf dem Brenner
TTITLE2=Six Days On The Road
TTITLE3=Ich bin ein Gefangener der Autobahn
TTITLE4=Gebet eines Truckers
TTITLE5=Meine Antwort ist die große Autobahn
TTITLE6=Buchstabiere LKW
TTITLE7=Er ist ein Gottesmann für Trucker
TTITLE8=Die Frau mit dem Gurt
TTITLE9=Lucille
TTITLE10=Ich möcht' so gern Dave Dudley hör'n
TTITLE11=Wer hat ein Herz das nie bricht
TTITLE12=Angie
TTITLE13=Mann oh Mann
TTITLE14=Der Feigling des Jahrhunderts
TTITLE15=Verdammt, mein Sohn hat dein Gesicht
EXTD=ID3G: 2
EXTT0=
EXTT1=
EXTT2=
EXTT3=
EXTT4=
EXTT5=
EXTT6=
EXTT7=
EXTT8=
EXTT9=
EXTT10=
EXTT11=
EXTT12=
EXTT13=
EXTT14=
EXTT15=
PLAYORDER=
